<?xml version="1.0" encoding="UTF-8" standalone="no"?>
<svg
   xmlns:dc="http://purl.org/dc/elements/1.1/"
   xmlns:cc="http://creativecommons.org/ns#"
   xmlns:rdf="http://www.w3.org/1999/02/22-rdf-syntax-ns#"
   xmlns:svg="http://www.w3.org/2000/svg"
   xmlns="http://www.w3.org/2000/svg"
   xmlns:sodipodi="http://sodipodi.sourceforge.net/DTD/sodipodi-0.dtd"
   xmlns:inkscape="http://www.inkscape.org/namespaces/inkscape"
   id="body_1"
   width="86"
   height="86"
   version="1.1"
   sodipodi:docname="mcdonaldsb (1).svg"
   inkscape:version="1.0.2-2 (e86c870879, 2021-01-15)">
  <metadata
     id="metadata2109">
    <rdf:RDF>
      <cc:Work
         rdf:about="">
        <dc:format>image/svg+xml</dc:format>
        <dc:type
           rdf:resource="http://purl.org/dc/dcmitype/StillImage" />
        <dc:title></dc:title>
      </cc:Work>
    </rdf:RDF>
  </metadata>
  <defs
     id="defs2107">
    <inkscape:path-effect
       effect="spiro"
       id="path-effect2712"
       is_visible="true"
       lpeversion="1" />
    <inkscape:path-effect
       effect="spiro"
       id="path-effect2689"
       is_visible="true"
       lpeversion="1" />
  </defs>
  <sodipodi:namedview
     pagecolor="#ffffff"
     bordercolor="#666666"
     borderopacity="1"
     objecttolerance="10"
     gridtolerance="10"
     guidetolerance="10"
     inkscape:pageopacity="0"
     inkscape:pageshadow="2"
     inkscape:window-width="3708"
     inkscape:window-height="2126"
     id="namedview2105"
     showgrid="false"
     inkscape:zoom="16.575898"
     inkscape:cx="49.051942"
     inkscape:cy="46.306542"
     inkscape:window-x="-11"
     inkscape:window-y="-11"
     inkscape:window-maximized="1"
     inkscape:current-layer="body_1" />
  <g
     transform="matrix(0.502924 0 0 0.502924 0 0)"
     id="g2102">
    <g
       transform="matrix(1.001953 0 0 1.001953 0 0)"
       id="g2094" />
    <path
       transform="matrix(1.001953 0 0 1.001953 0 0)"
       d="M145.9707 159.1829C 141.7504 158.4938 138.7074 155.7106 137.7396 151.6548C 137.3143 149.8724 137.3427 148.3922 138.0384 136.0888C 139.0248 118.6443 139.0275 118.429 138.4153 106.656C 137.835 95.49457 137.6225 93.52165 136.0275 84.48019C 130.9507 55.70362 127.6257 47.68195 119.3618 44.27391C 117.7278 43.60007 117.251 43.51617 115.1976 43.54126C 112.758 43.57106 111.0198 44.0073 109.2389 45.03666C 108.139 45.67247 105.6809 48.18985 105.0436 49.33311C 103.3661 52.34285 102.265 59.42534 101.3395 73.15866C 100.3446 87.92242 99.45085 95.94587 97.88805 104.143C 96.87421 109.4608 94.84926 114.2477 92.67003 116.4784C 90.74196 118.4521 87.05647 120.1377 85.08636 119.947C 83.40665 119.7844 80.21028 118.263 78.70951 116.9117C 76.43621 114.8648 74.32904 110.4055 73.2568 105.3724C 71.76458 98.36789 70.69486 89.10632 69.50598 72.89827C 68.46918 58.76347 67.67564 53.34661 66.12827 49.84141C 65.38908 48.16695 62.67132 45.46801 60.84484 44.59455C 55.99168 42.27368 50.26459 43.61807 46.18254 48.03642C 42.0557 52.50323 39.70329 59.41184 36.22046 77.29323C 31.9043 99.45303 31.3428 109.5572 32.88804 137.2599C 33.35665 145.6611 33.50084 149.8058 33.35627 150.7188C 32.66827 155.0637 30.05312 157.8795 25.64501 159.0217C 23.38803 159.6065 21.57169 159.4172 19.04751 158.3341C 15.25956 156.7089 12.92021 153.6303 11.61593 148.5542C 10.34327 143.6011 9.781575 139.2475 9.121807 129.2226C 8.251234 115.9947 8.344932 110.4258 9.696286 95.07893C 10.57586 85.08994 11.89593 76.48898 13.83686 68.10085C 17.89813 50.54928 24.48803 32.81711 30.02399 24.54437C 32.66905 20.59168 37.4898 15.8998 40.67642 14.17669C 44.94995 11.86586 51.99896 11.07985 57.72044 12.27617C 62.19625 13.21202 66.12302 15.17685 70.92587 18.88371C 74.91065 21.95919 77.72322 24.97629 80.26209 28.89887C 82.41605 32.22675 83.36971 32.87389 85.92278 32.74009C 87.85731 32.6387 88.49507 32.10326 90.86304 28.59245C 93.14652 25.20691 96.21864 21.86063 99.2038 19.50733C 105.6234 14.44652 109.8155 12.53573 115.7676 11.95739C 120.7182 11.47635 125.6333 12.08149 129.0669 13.59477C 132.2832 15.0123 136.8888 19.06777 139.8515 23.09122C 147.5796 33.58598 156.4222 59.87388 159.7984 82.39059C 161.2329 91.95741 162.6145 111.564 162.3881 119.1418C 161.8748 136.3225 160.2272 148.1765 157.6911 152.9374C 156.7788 154.6499 154.5783 156.9591 152.9885 157.8723C 151.7966 158.557 149.1597 159.3781 148.0555 159.4085C 147.7245 159.4175 146.7863 159.3161 145.9707 159.1829z"
       stroke="none"
       fill="#FFEF86"
       fill-rule="nonzero"
       id="path2096" />
    <g
       transform="matrix(1.001953 0 0 1.001953 0 0)"
       id="g2098" />
    <path
       transform="scale(1.001953)"
       d="m 145.9707,159.1829 c -4.2203,-0.6891 -7.2633,-3.4723 -8.2311,-7.5281 -0.4253,-1.7824 -0.3969,-3.2626 0.2988,-15.566 0.9864,-17.4445 0.9891,-17.6598 0.3769,-29.4328 -0.5803,-11.16143 -0.7928,-13.13435 -2.3878,-22.17581 -5.0768,-28.77657 -8.4018,-36.79824 -16.6657,-40.20628 -1.634,-0.67384 -2.1108,-0.75774 -4.1642,-0.73265 -2.4396,0.0298 -4.1778,0.46604 -5.9587,1.4954 -1.0999,0.63581 -3.558,3.15319 -4.1953,4.29645 -1.6775,3.00974 -2.7786,10.09223 -3.7041,23.82555 -0.9949,14.76376 -1.88865,22.78721 -3.45145,30.98434 -1.01384,5.3178 -3.03879,10.1047 -5.21802,12.3354 -1.92807,1.9737 -9.379497,2.66048 -9.379497,2.66048 -1.679519,-0.16456 -3.080253,-0.87588 -4.581023,-2.22718 -2.2733,-2.0469 -4.38047,-6.5062 -5.45271,-11.5393 -1.49222,-7.00451 -2.56194,-16.26608 -3.75082,-32.47413 -1.0368,-14.1348 -1.83034,-19.55166 -3.37771,-23.05686 -0.73919,-1.67446 -3.45695,-4.3734 -5.28343,-5.24686 -4.85316,-2.32087 -10.58025,-0.97648 -14.6623,3.44187 -4.12684,4.46681 -6.47925,11.37542 -9.96208,29.25681 -4.31616,22.1598 -4.87766,32.26397 -3.33242,59.96667 0.46861,8.4012 0.6128,12.5459 0.46823,13.4589 -0.688,4.3449 -3.30315,7.1607 -7.71126,8.3029 -2.25698,0.5848 -4.07332,0.3955 -6.5975,-0.6876 -3.78795,-1.6252 -6.1273,-4.7038 -7.43158,-9.7799 C 10.34327,143.6011 9.781575,139.2475 9.121807,129.2226 8.251234,115.9947 8.344932,110.4258 9.696286,95.07893 10.57586,85.08994 11.89593,76.48898 13.83686,68.10085 17.89813,50.54928 24.48803,32.81711 30.02399,24.54437 32.66905,20.59168 37.4898,15.8998 40.67642,14.17669 c 4.27353,-2.31083 11.32254,-3.09684 17.04402,-1.90052 4.47581,0.93585 8.40258,2.90068 13.20543,6.60754 3.98478,3.07548 6.79735,6.09258 9.33622,10.01516 2.15396,3.32788 3.10762,3.97502 5.66069,3.84122 1.93453,-0.10139 2.57229,-0.63683 4.94026,-4.14764 2.28348,-3.38554 5.3556,-6.73182 8.34076,-9.08512 6.4196,-5.06081 10.6117,-6.9716 16.5638,-7.54994 4.9506,-0.48104 9.8657,0.1241 13.2993,1.63738 3.2163,1.41753 7.8219,5.473 10.7846,9.49645 7.7281,10.49476 16.5707,36.78266 19.9469,59.29937 1.4345,9.56682 2.8161,29.17341 2.5897,36.75121 -0.5133,17.1807 -2.1609,29.0347 -4.697,33.7956 -0.9123,1.7125 -3.1128,4.0217 -4.7026,4.9349 -1.1919,0.6847 -3.8288,1.5058 -4.933,1.5362 -0.331,0.009 -1.2692,-0.0924 -2.0848,-0.2256 z"
       stroke="none"
       fill="#ffef86"
       fill-rule="nonzero"
       id="path2100"
       sodipodi:nodetypes="cssccsscccscsssssscsssscssssssssssscsscsscccc" />
  </g>
  <path
     style="fill:none;stroke:#e6bd1c;stroke-width:3;stroke-linecap:butt;stroke-linejoin:miter;stroke-miterlimit:4;stroke-dasharray:none;stroke-opacity:1"
     d="m 44.13929,16.516248 c 0.429543,-0.304966 0.696793,-0.783016 0.950987,-1.244423 0.390814,-0.709398 0.784581,-1.418559 1.237103,-2.090277 1.128852,-1.675652 2.60868,-3.093875 4.223215,-4.3085319 2.212725,-1.6646898 4.759955,-2.9868755 7.507936,-3.327381 2.307571,-0.2859338 4.70814,0.1493362 6.740079,1.279762 1.807385,1.0054996 3.2858,2.52227 4.521826,4.1805549 1.441502,1.933956 2.582484,4.0762 3.583333,6.270834 1.145556,2.511944 2.113994,5.101769 2.986111,7.72123 0.962823,2.891903 1.809427,5.822962 2.516865,8.787698 0.769285,3.223922 1.373731,6.486575 1.834326,9.76885 0.509975,3.634165 0.843813,7.294742 0.938492,10.963293 0.07413,2.872325 0.0017,5.746709 -0.127976,8.617064 -0.09838,2.178204 -0.229727,4.355266 -0.426588,6.526785 -0.09827,1.084004 -0.21294,2.16713 -0.383928,3.242064 -0.144871,0.910745 -0.331069,1.818548 -0.639881,2.6875 -0.26931,0.757798 -0.63267,1.485035 -1.109127,2.132934 -0.681973,0.927365 -1.60785,1.690967 -2.6875,2.090278 -1.055227,0.390278 -2.22173,0.421518 -3.327381,0.213294 -0.926362,-0.174459 -1.847701,-0.530515 -2.516865,-1.194445 -0.447255,-0.443757 -0.763516,-1.008074 -0.968788,-1.603742 -0.205273,-0.595668 -0.303384,-1.223577 -0.353633,-1.851615 -0.155883,-1.948321 0.14033,-3.900055 0.34127,-5.844246 0.228557,-2.211392 0.334273,-4.433508 0.426587,-6.654762 0.10041,-2.416065 0.185101,-4.834508 0.127976,-7.251984 C 69.447595,51.981883 69.039118,48.349999 68.467261,44.749006 67.835854,40.773024 67.00492,36.829105 65.993055,32.932538 65.357211,30.483982 64.640911,28.031582 63.433531,25.80853 62.873832,24.778 62.194074,23.7847 61.257936,23.078371 60.45438,22.472077 59.48325,22.099729 58.485118,21.969244 c -0.751136,-0.0982 -1.517901,-0.06226 -2.260912,0.08532 -1.425217,0.28309 -2.804677,1.019577 -3.625992,2.218253 -0.594072,0.867024 -0.862927,1.912326 -1.066469,2.943453 -0.416284,2.108859 -0.603837,4.255523 -0.767857,6.398809 -0.240502,3.142679 -0.431955,6.289383 -0.725198,9.42758 -0.243872,2.60985 -0.558095,5.213076 -0.938492,7.806547 -0.244987,1.670272 -0.5232,3.3568 -1.194445,4.905754 -0.567264,1.309009 -1.417309,2.503705 -2.516865,3.412699 -0.5304,0.438477 -1.131249,0.81562 -1.802828,0.965846 -0.594245,0.132927 -1.222075,0.08085 -1.803052,-0.101528 -0.580977,-0.18238 -1.117012,-0.491516 -1.598484,-0.864318 -1.129977,-0.874938 -1.960987,-2.096127 -2.516865,-3.412699 -0.656442,-1.554753 -0.944473,-3.236716 -1.194445,-4.905754 -0.388257,-2.592353 -0.696884,-5.19644 -0.938492,-7.806547 -0.290514,-3.138444 -0.484111,-6.284953 -0.725198,-9.42758 -0.16442,-2.143251 -0.351646,-4.28994 -0.767857,-6.398809 -0.203507,-1.031135 -0.472387,-2.076434 -1.066469,-2.943453 -0.821327,-1.198666 -2.200777,-1.935161 -3.625992,-2.218253 -0.743011,-0.147585 -1.509776,-0.183516 -2.260912,-0.08532 -0.998132,0.130485 -1.969262,0.502833 -2.772818,1.109127 -0.936139,0.706329 -1.615896,1.699629 -2.175595,2.730159 -1.207379,2.223052 -1.92368,4.675452 -2.559524,7.124008 -1.011865,3.896567 -1.842799,7.840486 -2.474206,11.816468 -0.571857,3.600993 -0.980334,7.232877 -1.066468,10.877976 -0.05713,2.417476 0.02757,4.835919 0.127976,7.251984 0.09231,2.221254 0.19803,4.44337 0.426587,6.654762 0.20094,1.944191 0.497153,3.895925 0.34127,5.844246 -0.05025,0.628038 -0.14836,1.255947 -0.353633,1.851615 -0.205272,0.595668 -0.521533,1.159985 -0.968788,1.603742 -0.669164,0.66393 -1.590503,1.019986 -2.516865,1.194445 C 11.990579,80.236 10.824076,80.20476 9.7688492,79.814482 8.6891989,79.415171 7.7633223,78.651569 7.0813492,77.724204 6.604892,77.076305 6.2415319,76.349068 5.9722222,75.59127 5.6634099,74.722318 5.4772121,73.814515 5.3323413,72.90377 5.161353,71.828835 5.0466842,70.74571 4.9484127,69.661706 4.7515513,67.490187 4.6202096,65.313125 4.5218254,63.134921 4.3921784,60.264566 4.3197191,57.390182 4.3938492,54.517857 4.4885286,50.849306 4.822369,47.188729 5.3323413,43.554564 c 0.4605925,-3.282275 1.0650328,-6.54493 1.8343254,-9.76885 0.7074456,-2.964734 1.5540678,-5.895787 2.5168651,-8.787698 0.8720942,-2.61947 1.8404742,-5.209321 2.9861112,-7.72123 1.000916,-2.194596 2.14205,-4.336722 3.583333,-6.270834 1.235864,-1.6584529 2.714021,-3.1757337 4.521826,-4.1805552 2.032175,-1.1295318 4.432314,-1.5622478 6.740079,-1.2797619 2.749336,0.3365371 5.304379,1.649155 7.507936,3.327381 1.606241,1.2233111 3.063172,2.6560191 4.223215,4.3085321 0.465679,0.663372 0.882974,1.361228 1.237103,2.090277 0.124294,0.255885 0.241262,0.516413 0.393746,0.756569 0.152484,0.240156 0.343796,0.461606 0.587405,0.608511 0.28429,0.171437 0.621821,0.231383 0.952908,0.25573 0.299002,0.02199 0.601479,0.01739 0.896036,-0.03848 0.294558,-0.05587 0.581598,-0.164343 0.82606,-0.337906 z"
     id="path2687-5"
     inkscape:path-effect="#path-effect2712"
     inkscape:original-d="m 44.13929,16.516248 c -0.381606,0.408444 0.539619,-0.548663 0.950987,-1.244423 0.411368,-0.695759 -0.169635,-0.6551 1.237103,-2.090277 1.406738,-1.435178 1.721569,-3.200405 4.223215,-4.3085319 2.501645,-1.108127 5.262243,-3.754968 7.507936,-3.327381 2.245693,0.427587 5.233804,-0.114757 6.740079,1.279762 1.506276,1.394518 3.328381,2.089278 4.521826,4.1805549 1.193444,2.091278 2.588963,3.69609 3.583333,6.270834 0.994371,2.574743 2.148156,4.790997 2.986111,7.72123 0.837955,2.930233 1.906423,5.530415 2.516865,8.787698 0.610442,3.257283 1.522495,6.113418 1.834326,9.76885 0.31183,3.655431 0.982152,8.089939 0.938492,10.963293 -0.04366,2.873355 0.01522,6.440468 -0.127976,8.617064 -0.143196,2.176595 -0.297611,5.445098 -0.426588,6.526785 -0.128976,1.081688 -0.169635,2.345231 -0.383928,3.242064 -0.214294,0.896833 -0.269172,1.975521 -0.639881,2.6875 -0.370709,0.711979 -0.212294,1.435177 -1.109127,2.132934 -0.896834,0.69776 -1.577373,2.018178 -2.6875,2.090278 -1.110127,0.0721 -2.487426,0.610442 -3.327381,0.213294 -0.839955,-0.397148 -2.075058,-0.04366 -2.516865,-1.194445 -0.441807,-1.150785 -1.435177,-1.508275 -1.322421,-3.455357 0.112757,-1.947082 0.200074,-3.626992 0.34127,-5.844246 0.141196,-2.217254 0.384927,-4.238434 0.426587,-6.654762 0.04166,-2.416328 0.484466,-3.626992 0.127976,-7.251984 C 69.17724,52.00199 69.292997,48.686829 68.467261,44.749006 67.641526,40.811183 66.847229,35.306207 65.993055,32.932538 65.13888,30.558868 64.159729,26.717583 63.433531,25.80853 c -0.726198,-0.909053 -1.250323,-2.36145 -2.175595,-2.730159 -0.925273,-0.368709 -2.01818,-1.138567 -2.772818,-1.109127 -0.754637,0.02944 -1.051248,-0.655098 -2.260912,0.08532 -1.209664,0.740417 -3.269503,1.236103 -3.625992,2.218253 -0.35649,0.982151 -0.809516,0.809516 -1.066469,2.943453 -0.256952,2.133936 -0.525124,3.255283 -0.767857,6.398809 -0.242733,3.143527 -0.411368,6.824397 -0.725198,9.42758 -0.313831,2.603182 -0.539344,6.170296 -0.938492,7.806547 -0.399148,1.636252 -0.35449,3.767188 -1.194445,4.905754 -0.839955,1.138566 -1.563153,3.04199 -2.516865,3.412699 -0.953711,0.370709 -0.229689,0.815089 -1.802828,0.965846 -1.505117,0.14424 -2.447825,-0.595137 -3.401536,-0.965846 -0.953712,-0.370709 -1.67691,-2.274133 -2.516865,-3.412699 -0.839955,-1.138566 -0.795297,-3.269502 -1.194445,-4.905754 -0.399148,-1.636251 -0.624661,-5.203365 -0.938492,-7.806547 -0.31383,-2.603183 -0.482465,-6.284053 -0.725198,-9.42758 -0.242733,-3.143526 -0.510905,-4.264873 -0.767857,-6.398809 -0.256953,-2.133937 -0.709979,-1.961302 -1.066469,-2.943453 -0.356489,-0.98215 -2.416328,-1.477836 -3.625992,-2.218253 -1.209664,-0.740418 -1.506275,-0.05588 -2.260912,-0.08532 -0.754638,-0.02944 -1.847545,0.740418 -2.772818,1.109127 -0.925272,0.368709 -1.449397,1.821106 -2.175595,2.730159 -0.726198,0.909053 -1.705349,4.750338 -2.559524,7.124008 -0.854174,2.373669 -1.648471,7.878645 -2.474206,11.816468 -0.825736,3.937823 -0.709979,7.252984 -1.066468,10.877976 -0.35649,3.624992 0.08632,4.835656 0.127976,7.251984 0.04166,2.416328 0.285391,4.437508 0.426587,6.654762 0.141196,2.217254 0.228513,3.897164 0.34127,5.844246 0.112756,1.947082 -0.880614,2.304572 -1.322421,3.455357 -0.441807,1.150786 -1.67691,0.797297 -2.516865,1.194445 -0.839955,0.397148 -2.217254,-0.141196 -3.3273808,-0.213294 -1.110127,-0.0721 -1.7906667,-1.392518 -2.6875,-2.090278 C 6.1845159,77.026447 6.3429312,76.303249 5.9722222,75.59127 5.6015132,74.879291 5.5466349,73.800603 5.3323413,72.90377 5.1180476,72.006937 5.0773889,70.743394 4.9484127,69.661706 4.8194365,68.580019 4.6650212,65.311516 4.5218254,63.134921 4.3786296,60.958325 4.4375079,57.391212 4.3938492,54.517857 4.3501905,51.644503 5.0205106,47.209995 5.3323413,43.554564 c 0.3118307,-3.655432 1.2238836,-6.511567 1.8343254,-9.76885 0.6104418,-3.257283 1.67891,-5.857465 2.5168651,-8.787698 0.8379552,-2.930233 1.9917402,-5.146487 2.9861112,-7.72123 0.99437,-2.574744 2.389889,-4.179556 3.583333,-6.270834 1.193445,-2.0912774 3.01555,-2.7860367 4.521826,-4.1805552 1.506275,-1.3945185 4.494386,-0.8521746 6.740079,-1.2797619 2.245693,-0.4275873 5.006291,2.219254 7.507936,3.327381 2.501646,1.108127 2.816477,2.8733541 4.223215,4.3085321 1.406738,1.435177 0.825735,1.394518 1.237103,2.090277 0.411368,0.69576 1.419098,1.71243 0.981151,1.36508 -6.249452,-4.956634 114.409744,3.179042 0.952908,0.25573 -0.847656,-0.02184 11.165434,-10.483859 1.722096,-0.376387 z"
     sodipodi:nodetypes="sssssssssssssssssssssssssssssssssssssssssssssssssssssssssssssssssssssssssssss" />
</svg>
