<?xml version="1.0" standalone="no"?>
<!DOCTYPE svg PUBLIC "-//W3C//DTD SVG 1.0//EN" "http://www.w3.org/TR/2001/REC-SVG-20010904/DTD/svg10.dtd">
<svg xmlns="http://www.w3.org/2000/svg" xmlns:xlink="http://www.w3.org/1999/xlink" id="body_1" width="80" height="80">

<g transform="matrix(0.4678363 0 0 0.4678363 0 0)">
	<g transform="matrix(1.499235 0 0 0.9060446 -33.97505 9.121781)">
	</g>
    <path transform="matrix(1.499235 0 0 0.9060446 -33.97505 9.121781)"  d="M130.6125 60.19012C 130.5952 61.21743 80.83941 109.3226 79.8121 109.3053C 78.78477 109.2879 30.67963 59.53211 30.69696 58.50479C 30.71429 57.47748 80.4701 9.372332 81.49741 9.389659C 82.52473 9.406987 130.6299 59.1628 130.6125 60.19012z" stroke="#6A5B6E" stroke-width="5" fill="#6A5B6E" fill-rule="nonzero" />
	<g transform="matrix(1.001953 0 0 1.001953 0 0)">
	</g>
    <path transform="matrix(1.001953 0 0 1.001953 0 0)"  d="M157.4573 65.96837L157.337 107.8607" stroke="#6A5B6E" stroke-width="6" stroke-linecap="round" fill="none" />
	<g transform="matrix(0.7013003 0.4234847 0 0.5604847 9.374984 29.68974)">
	</g>
    <path transform="matrix(0.7013003 0.4234847 0 0.5604847 9.374984 29.68974)"  d="M102.9251 158.0592C 102.128 158.8613 25.96152 159.0971 25.15947 158.3C 24.35742 157.5029 24.12161 81.33641 24.91871 80.53436C 25.71581 79.73231 101.8823 79.4965 102.6843 80.29359C 103.4864 81.09069 103.7222 157.2572 102.9251 158.0592z" stroke="#6A5B6E" stroke-width="5" stroke-linecap="round" fill="#6A5B6E" fill-rule="nonzero" />
	<g transform="matrix(-0.7013003 0.405239 0 0.5705475 163.3933 29.66258)">
	</g>
    <path transform="matrix(-0.7013003 0.405239 0 0.5705475 163.3933 29.66258)"  d="M102.9251 158.0592C 102.128 158.8613 25.96152 159.0971 25.15947 158.3C 24.35742 157.5029 24.12161 81.33641 24.91871 80.53436C 25.71581 79.73231 101.8823 79.4965 102.6843 80.29359C 103.4864 81.09069 103.7222 157.2572 102.9251 158.0592z" stroke="#6A5B6E" stroke-width="5" stroke-linecap="round" fill="#6A5B6E" fill-rule="nonzero" />
</g>
</svg>