<?xml version="1.0" encoding="UTF-8" standalone="no"?>
<svg
   xmlns:dc="http://purl.org/dc/elements/1.1/"
   xmlns:cc="http://creativecommons.org/ns#"
   xmlns:rdf="http://www.w3.org/1999/02/22-rdf-syntax-ns#"
   xmlns:svg="http://www.w3.org/2000/svg"
   xmlns="http://www.w3.org/2000/svg"
   xmlns:sodipodi="http://sodipodi.sourceforge.net/DTD/sodipodi-0.dtd"
   xmlns:inkscape="http://www.inkscape.org/namespaces/inkscape"
   id="body_1"
   width="80"
   height="80"
   version="1.1"
   sodipodi:docname="schools2.svg"
   inkscape:version="1.0.2-2 (e86c870879, 2021-01-15)">
  <metadata
     id="metadata881">
    <rdf:RDF>
      <cc:Work
         rdf:about="">
        <dc:format>image/svg+xml</dc:format>
        <dc:type
           rdf:resource="http://purl.org/dc/dcmitype/StillImage" />
        <dc:title />
      </cc:Work>
    </rdf:RDF>
  </metadata>
  <defs
     id="defs879" />
  <sodipodi:namedview
     pagecolor="#ffffff"
     bordercolor="#666666"
     borderopacity="1"
     objecttolerance="10"
     gridtolerance="10"
     guidetolerance="10"
     inkscape:pageopacity="0"
     inkscape:pageshadow="2"
     inkscape:window-width="2294"
     inkscape:window-height="1840"
     id="namedview877"
     showgrid="false"
     inkscape:zoom="17.819091"
     inkscape:cx="32.214747"
     inkscape:cy="38.650782"
     inkscape:window-x="1125"
     inkscape:window-y="165"
     inkscape:window-maximized="0"
     inkscape:current-layer="g874"
     inkscape:document-rotation="0" />
  <g
     transform="matrix(0.4678363 0 0 0.4678363 0 0)"
     id="g874"
     style="stroke-width:1.00176369;stroke-miterlimit:4;stroke-dasharray:none;fill:#b0f2ff;fill-opacity:1">
    <g
       transform="matrix(1.499235 0 0 0.9060446 -33.97505 9.121781)"
       id="g858"
       style="stroke-width:0.85951932;stroke-miterlimit:4;stroke-dasharray:none;fill:#b0f2ff;fill-opacity:1" />
    <path
       d="M 161.84378,63.536759 C 161.81784,64.467547 87.222223,108.05298 85.682044,108.0373 84.141835,108.02154 12.020925,62.940572 12.046907,62.009774 12.072889,61.078986 86.66854,17.493576 88.208719,17.509275 c 1.540195,0.0157 73.661151,45.096686 73.635061,46.027484 z"
       stroke="#88D18A"
       stroke-width="5"
       fill="#88D18A"
       fill-rule="nonzero"
       id="path860"
       style="fill:#e0b867;fill-opacity:1;stroke:#e0b867;stroke-width:5.70071;stroke-miterlimit:4;stroke-dasharray:none;stroke-opacity:1" />
    <g
       transform="matrix(1.001953 0 0 1.001953 0 0)"
       id="g862"
       style="stroke-width:0.99981106;stroke-miterlimit:4;stroke-dasharray:none;fill:#b0f2ff;fill-opacity:1" />
    <path
       d="m 152.85017,66.995107 -0.12053,41.974143"
       stroke="#88D18A"
       stroke-width="6"
       stroke-linecap="round"
       fill="none"
       id="path864"
       style="stroke:#e0b867;stroke-width:8.54999922;stroke-miterlimit:4;stroke-dasharray:none;stroke-opacity:1;fill:#f5d086;fill-opacity:1" />
    <g
       transform="matrix(0.7013003 0.4234847 0 0.5604847 9.374984 29.68974)"
       id="g866"
       style="stroke-width:1.59783303;stroke-miterlimit:4;stroke-dasharray:none;fill:#b0f2ff;fill-opacity:1" />
    <g
       transform="matrix(-0.7013003 0.405239 0 0.5705475 163.3933 29.66258)"
       id="g870"
       style="stroke-width:1.58367978;stroke-miterlimit:4;stroke-dasharray:none;fill:#b0f2ff;fill-opacity:1" />
    <path
       d="m 91.095723,157.91403 c 0.484027,0.0972 46.735747,-27.79259 47.222767,-28.47536 0.48704,-0.68277 0.63025,-37.833676 0.14621,-37.930891 -0.48403,-0.09723 -46.735738,27.792571 -47.222758,28.475331 -0.48707,0.6828 -0.630257,37.83371 -0.146219,37.93092 z"
       stroke="#88D18A"
       stroke-width="5"
       stroke-linecap="round"
       fill="#88D18A"
       fill-rule="nonzero"
       id="path4466"
       style="fill:#e0b867;fill-opacity:1;stroke:#e0b867;stroke-width:2.47108;stroke-miterlimit:4;stroke-dasharray:none;stroke-opacity:1" />
    <path
       d="m 80.526139,157.91403 c -0.484027,0.0972 -46.735747,-27.79259 -47.222767,-28.47536 -0.48704,-0.68277 -0.63025,-37.833676 -0.14621,-37.930891 0.48403,-0.09723 46.735738,27.792571 47.222758,28.475331 0.48707,0.6828 0.630257,37.83371 0.146219,37.93092 z"
       stroke="#88D18A"
       stroke-width="5"
       stroke-linecap="round"
       fill="#88D18A"
       fill-rule="nonzero"
       id="path4468"
       style="fill:#e0b867;fill-opacity:1;stroke:#e0b867;stroke-width:2.47108;stroke-miterlimit:4;stroke-dasharray:none;stroke-opacity:1" />
  </g>
</svg>
